<svg width="209" height="210" viewBox="0 0 209 210" fill="none" xmlns="http://www.w3.org/2000/svg">
<path opacity="0.7" fill-rule="evenodd" clip-rule="evenodd" d="M198.062 58.8242C188.04 38.7369 171.751 22.3632 151.8 12.2169L198.062 58.8242ZM133.462 4.98737C138.849 6.5388 144.059 8.51269 149.055 10.8715L199.385 61.5767C201.595 66.3511 203.455 71.3224 204.933 76.4583L133.462 4.98737ZM131.504 4.4444C127.115 3.27289 122.614 2.38052 118.021 1.78715L208.13 91.896C207.536 87.3 206.644 82.7998 205.475 78.4148L131.504 4.4444ZM107.686 0.96917C110.626 1.05647 113.536 1.26565 116.412 1.5919L208.325 93.5056C208.681 96.6329 208.898 99.8031 208.972 103.01L107.686 0.96917ZM199.643 148.702C198.584 151.026 197.443 153.304 196.222 155.533L55.0691 13.3283C57.08 12.2468 59.1307 11.2292 61.2186 10.2781L199.643 148.702ZM47.8898 17.5677C49.9299 16.2504 52.0191 15.0021 54.1543 13.8262L195.717 156.444C194.653 158.343 193.53 160.206 192.352 162.03L47.8898 17.5677ZM205.884 130.857C206.34 129.035 206.748 127.194 207.107 125.336L84.5902 2.81945C82.9871 3.12856 81.3973 3.47422 79.8216 3.8555L205.884 130.857ZM78.6909 4.13585C76.0872 4.79694 73.523 5.55556 71.0025 6.40755L203.515 138.92C204.286 136.642 204.98 134.33 205.595 131.985L78.6909 4.13585ZM62.1944 9.83971C64.7278 8.7171 67.3146 7.69209 69.9503 6.76953L203.153 139.972C202.23 142.606 201.205 145.193 200.081 147.727L62.1944 9.83971ZM191.794 162.886C190.368 165.049 188.863 167.155 187.284 169.202L40.7185 22.6369C42.7645 21.058 44.871 19.5531 47.0341 18.1262L191.794 162.886ZM186.665 169.997L39.9237 23.2563C38.2015 24.6119 36.5232 26.0204 34.8911 27.4793L184.251 172.952C185.073 171.982 185.878 170.997 186.665 169.997ZM183.6 173.713C182.193 175.342 180.736 176.927 179.232 178.466L28.9739 33.2007C30.6397 31.4588 32.3653 29.7742 34.1476 28.1503L183.6 173.713ZM23.1571 39.8175C24.7938 37.7902 26.505 35.8251 28.2866 33.9263L178.53 179.177C176.693 181.022 174.787 182.799 172.816 184.503L23.1571 39.8175ZM172.053 185.156L22.5302 40.6016C21.6648 41.6946 20.8208 42.8053 19.999 43.933L168.197 188.274C169.507 187.264 170.793 186.225 172.053 185.156ZM15.3567 50.8664C16.6368 48.7792 17.9882 46.74 19.4077 44.7524L167.393 188.886C165.65 190.202 163.863 191.465 162.037 192.672L15.3567 50.8664ZM161.179 193.233L14.8251 51.7426C13.4408 54.0503 12.1431 56.4155 10.9365 58.8335L154.223 197.359C156.599 196.072 158.919 194.695 161.179 193.233ZM2.08372 84.5476C2.68469 81.5849 3.41129 78.6668 4.2578 75.7994L137.493 204.607C134.656 205.55 131.764 206.374 128.823 207.075L2.08372 84.5476ZM138.558 204.247L4.58202 74.7227C5.35856 72.1936 6.22865 69.7049 7.18834 67.2605L145.215 201.695C143.033 202.618 140.813 203.47 138.558 204.247ZM146.209 201.268L7.589 66.2554C8.47845 64.0576 9.44062 61.8965 10.4726 59.7751L153.298 197.855C150.986 199.078 148.621 200.217 146.209 201.268ZM1.85379 85.7154C1.29762 88.6282 0.862646 91.5831 0.554242 94.5745L114.572 209.441C119.025 209.015 123.394 208.31 127.663 207.344L1.85379 85.7154ZM113.278 209.557C111.003 209.746 108.707 209.863 106.392 209.905C105.796 209.916 105.201 209.922 104.606 209.923L0 105.316C0.00205968 102.132 0.147059 98.9809 0.429012 95.8678L113.278 209.557ZM103.185 209.915L0.00858804 106.739C0.0110275 106.931 0.0139863 107.123 0.0174657 107.315C0.0850443 111.046 0.347373 114.728 0.794585 118.351L91.5768 209.134C95.3879 209.604 99.2611 209.868 103.185 209.915ZM71.9118 204.741C66.371 202.923 61.0317 200.654 55.9386 197.976L11.9394 153.977C9.14794 148.665 6.79947 143.082 4.94403 137.274L71.9118 204.741ZM73.9665 205.392L4.30984 135.216C2.84568 130.282 1.73528 125.194 1.00851 119.979L89.9488 208.92C84.4769 208.157 79.1378 206.97 73.9665 205.392ZM52.8108 196.262L13.6512 157.103C22.9551 173.424 36.5231 186.974 52.8108 196.262ZM102.608 0.939973C103.824 0.917937 105.037 0.916785 106.244 0.936186L208.995 104.453C209.024 107.426 208.927 110.372 208.711 113.285L96.6412 1.21577C98.6148 1.0687 100.604 0.976261 102.608 0.939973ZM95.3326 1.32147C92.1037 1.60251 88.9179 2.0299 85.7818 2.59686L207.33 124.145C207.897 121.007 208.325 117.821 208.605 114.594L95.3326 1.32147Z" fill="url(#paint0_linear_23_75)" fill-opacity="0.5"/>
<defs>
<linearGradient id="paint0_linear_23_75" x1="102.608" y1="0.940016" x2="106.392" y2="209.905" gradientUnits="userSpaceOnUse">
<stop stop-color="#3E77CD"/>
<stop offset="1" stop-color="#D14D30"/>
</linearGradient>
</defs>
</svg>
